<?xml version="1.0" standalone="no"?>
<!DOCTYPE svg PUBLIC "-//W3C//DTD SVG 20010904//EN"
 "http://www.w3.org/TR/2001/REC-SVG-20010904/DTD/svg10.dtd">
<svg version="1.0" xmlns="http://www.w3.org/2000/svg"
 width="742.000000pt" height="742.000000pt" viewBox="0 0 742.000000 742.000000"
 preserveAspectRatio="xMidYMid meet">
<metadata>
Created by potrace 1.11, written by Peter Selinger 2001-2013
</metadata>
<g transform="translate(0.000000,742.000000) scale(0.100000,-0.100000)"
fill="#000000" stroke="none">
<path d="M3465 7413 c-1428 -94 -2672 -1000 -3204 -2333 -396 -990 -335 -2154
161 -3090 186 -350 380 -612 663 -896 344 -344 723 -603 1160 -791 665 -287
1419 -370 2145 -237 1129 207 2116 949 2634 1981 418 834 505 1797 245 2704
-131 456 -362 899 -671 1287 -121 151 -403 435 -543 548 -612 488 -1303 764
-2064 824 -124 9 -406 11 -526 3z m380 -1298 l25 -24 0 -346 0 -346 -25 -24
c-21 -22 -33 -25 -98 -25 -313 0 -496 -184 -497 -497 l0 -73 856 -2 856 -3 19
-24 c19 -23 19 -62 19 -1562 0 -1526 0 -1539 -20 -1559 -19 -19 -33 -20 -390
-20 -357 0 -371 1 -390 20 -20 20 -20 33 -20 1190 l0 1170 -465 0 -465 0 0
-1164 c0 -1162 0 -1163 -21 -1190 l-20 -26 -374 0 -374 0 -15 22 c-14 20 -16
149 -16 1190 l0 1168 -204 0 c-186 0 -206 2 -227 19 l-24 19 -3 329 c-3 354 0
392 43 411 17 8 94 12 220 12 l195 0 0 84 c0 111 24 291 54 407 145 558 571
854 1249 867 81 2 90 0 112 -23z m893 -56 c81 -27 175 -98 223 -169 110 -161
104 -387 -15 -533 -87 -108 -195 -165 -326 -174 -263 -19 -480 186 -480 453 0
218 151 396 375 444 56 12 149 4 223 -21z"/>
</g>
</svg>
