<svg xmlns="http://www.w3.org/2000/svg" viewBox="0 0 493.56 151.73"><title>Asset 1</title><path d="M120.24,41.89c-30.58,0-55.12,23.91-55.12,54.91s24.54,54.92,55.12,54.92,55.13-23.92,55.13-54.92S150.82,41.89,120.24,41.89Zm0,83.68C104.29,125.57,92,113.69,92,96.81S104.29,68,120.24,68s28.24,11.88,28.24,28.76S136.18,125.57,120.24,125.57Z"/><path d="M240.07,41.89c-13,0-22.51,4.71-28.34,13.52V46.94a2.23,2.23,0,0,0-2.23-2.23H187.08a2.23,2.23,0,0,0-2.23,2.23v99.74a2.23,2.23,0,0,0,2.23,2.23H209.5a2.23,2.23,0,0,0,2.23-2.23V88.57c0-15.68,8.23-21.78,18.81-21.78,9.43,0,16.52,5.63,16.52,17.56v62.32a2.23,2.23,0,0,0,2.23,2.23h22.42a2.23,2.23,0,0,0,2.23-2.23V82.32C273.94,56.79,259.46,41.89,240.07,41.89Z"/><path d="M341.55,44.7H325.86l0-31.11a2.23,2.23,0,0,0-2.23-2.23H301.18a2.23,2.23,0,0,0-2.23,2.23V44.7H283.23A2.23,2.23,0,0,0,281,46.94V68.32a2.23,2.23,0,0,0,2.23,2.23h15.72v76.13a2.23,2.23,0,0,0,2.23,2.23H323.6a2.23,2.23,0,0,0,2.23-2.23l0-76.13h15.69a2.23,2.23,0,0,0,2.23-2.23V46.94A2.23,2.23,0,0,0,341.55,44.7Z"/><rect x="353.97" y="44.7" width="26.89" height="104.21" rx="2.23" ry="2.23"/><circle cx="367.41" cy="16.61" r="14.92"/><path d="M61.59,44.7H41.78v-1c0-12.14,6.15-17.87,16.88-17.82h1.38a2.27,2.27,0,0,0,2.26-2.27V2.27A2.27,2.27,0,0,0,60,0H58.67C29.17,0,14.9,16.48,14.9,43.66v1H2.23A2.23,2.23,0,0,0,0,46.94V68.32a2.23,2.23,0,0,0,2.23,2.23H14.9v76.13a2.23,2.23,0,0,0,2.23,2.23H39.55a2.23,2.23,0,0,0,2.23-2.23V70.55H61.59a2.23,2.23,0,0,0,2.23-2.23V46.94A2.23,2.23,0,0,0,61.59,44.7Z"/><path d="M489.85,44.7H434.51v-1c0-12.14,6.15-17.87,16.88-17.82h1.38A2.27,2.27,0,0,0,455,23.58V2.27A2.27,2.27,0,0,0,452.77,0h-1.37c-29.5,0-43.76,16.47-43.76,43.66v1H395a2.23,2.23,0,0,0-2.23,2.23V68.32A2.23,2.23,0,0,0,395,70.55h12.67v76.13a2.23,2.23,0,0,0,2.23,2.23h22.42a2.23,2.23,0,0,0,2.23-2.23V70.55H465.2v76.13a2.23,2.23,0,0,0,2.23,2.23h22.42a2.23,2.23,0,0,0,2.23-2.23V46.94A2.23,2.23,0,0,0,489.85,44.7Z"/><circle cx="478.64" cy="16.61" r="14.92"/></svg>