<?xml version="1.0" encoding="UTF-8"?>
<svg width="253px" height="179px" viewBox="0 0 253 179" version="1.1" xmlns="http://www.w3.org/2000/svg" xmlns:xlink="http://www.w3.org/1999/xlink">
    <g id="Page-1" stroke="none" stroke-width="1" fill="none" fill-rule="evenodd">
        <g id="Desktop-HD" transform="translate(-604.000000, -343.000000)">
            <g id="empty-folder" transform="translate(582.000000, 338.000000)">
                <path d="M158.685265,74.9 L261.35,74.9 L261.35,74.9 C268.888687,74.9 275,81.0113132 275,88.55 L275,88.55 L275,88.55 C275,96.0886868 268.888687,102.2 261.35,102.2 L213.367605,102.2 L213.367605,102.2 C205.828918,102.2 199.717605,108.311313 199.717605,115.85 L199.717605,115.85 L199.717605,115.85 C199.717605,123.388687 205.828918,129.5 213.367605,129.5 L215.361716,129.5 L215.361716,129.5 C222.900403,129.5 229.011716,135.611313 229.011716,143.15 L229.011716,143.15 L229.011716,143.15 C229.011716,150.688687 222.900403,156.8 215.361716,156.8 L65.2021969,156.8 L65.2021969,156.8 C57.6635101,156.8 51.5521969,150.688687 51.5521969,143.15 L51.5521969,143.15 L51.5521969,143.15 C51.5521969,135.611313 57.6635101,129.5 65.2021969,129.5 L158.726435,129.5 L158.726435,129.5 C166.265122,129.5 172.376435,123.388687 172.376435,115.85 L172.376435,115.85 L172.376435,115.85 C172.376435,108.311313 166.265122,102.2 158.726435,102.2 L35.65,102.2 L35.65,102.2 C28.1113132,102.2 22,96.0886868 22,88.55 L22,88.55 L22,88.55 C22,81.0113132 28.1113132,74.9 35.65,74.9 L104.044095,74.9 L104.044095,74.9 C111.582782,74.9 117.694095,68.7886868 117.694095,61.25 L117.694095,61.25 L117.694095,61.25 C117.694095,53.7113132 111.582782,47.6 104.044095,47.6 L62.99117,47.6 L62.99117,47.6 C55.4524832,47.6 49.34117,41.4886868 49.34117,33.95 L49.34117,33.95 L49.34117,33.95 C49.34117,26.4113132 55.4524832,20.3 62.99117,20.3 L173.428014,20.3 L173.428014,20.3 C180.966701,20.3 187.078014,26.4113132 187.078014,33.95 L187.078014,33.95 L187.078014,33.95 C187.078014,41.4886868 180.966701,47.6 173.428014,47.6 L158.685265,47.6 L158.685265,47.6 C151.146578,47.6 145.035265,53.7113132 145.035265,61.25 L145.035265,61.25 L145.035265,61.25 C145.035265,68.7886868 151.146578,74.9 158.685265,74.9 Z" id="Combined-Shape" fill="#B9B9B9" opacity="0.0900000036"></path>
                <path d="M77.918232,89.6 L110.055249,89.6 C111.988245,89.6 113.555249,91.1670034 113.555249,93.1 C113.555249,95.0329966 115.122252,96.6 117.055249,96.6 L175.051381,96.6 C177.370977,96.6 179.251381,98.480404 179.251381,100.8 L179.251381,109.55 L91.1961325,109.55 C89.2631359,109.55 87.6961326,111.117003 87.6961326,113.05 L87.6961326,175.01105 C87.6961326,178.87094 84.567073,182 80.7071823,182 C76.8472917,182 73.718232,178.87094 73.718232,175.01105 L73.718232,93.7999999 C73.718232,91.480404 75.5986361,89.6 77.918232,89.6 Z" id="Rectangle-8" stroke="#141419" stroke-width="2.79999995" fill="#EBF1F9" stroke-linejoin="round"></path>
                <path d="M72.6637248,70.9562985 L65.468232,70.9562985 L65.468232,69.8304783 C65.7789701,69.632965 66.1139796,69.4601435 66.4732705,69.3120085 C66.8325614,69.1638735 67.1869917,69.0503051 67.5365721,68.9712998 L75.0525118,49.8619835 L77.2082465,49.8619835 L84.5202654,68.9712998 C84.908688,69.0503051 85.2971048,69.1638735 85.6855274,69.3120085 C86.07395,69.4601435 86.4138147,69.632965 86.7051316,69.8304783 L86.7051316,70.9562985 L77.5869566,70.9562985 L77.5869566,69.8304783 C77.9559581,69.6527164 78.3540853,69.4848326 78.7813502,69.3268219 C79.208615,69.1688113 79.6164526,69.0503051 80.0048752,68.9712998 L78.3152454,64.2606311 L71.8480414,64.2606311 L70.12928,68.9712998 C71.0226519,69.0898078 71.8674584,69.3761977 72.6637248,69.8304783 L72.6637248,70.9562985 Z M72.5471986,62.3348861 L77.7034828,62.3348861 L75.8099321,56.6761583 L75.2564327,54.1282494 L75.1981696,54.1282494 L74.5572755,56.735412 L72.5471986,62.3348861 Z M93.3471249,55.7873529 C94.6094984,55.7873529 95.6582237,55.9206723 96.4933323,56.1873153 C97.3284408,56.4539583 97.9596181,56.7847881 98.386883,57.1798147 C99.2996761,56.1724968 100.348401,55.4713351 101.53309,55.0763085 C101.669038,55.1750652 101.804984,55.3182602 101.940932,55.5058978 C102.07688,55.6935355 102.193405,55.8959836 102.290511,56.1132482 C102.387616,56.3305128 102.4653,56.5477742 102.523563,56.7650388 C102.581826,56.9823034 102.610958,57.1600628 102.610958,57.2983221 L102.232247,58.0093664 L99.1734348,58.0093664 C99.3870672,58.285885 99.5861308,58.6463414 99.7706316,59.0907463 C99.9551323,59.5351512 100.047381,60.0634914 100.047381,60.6757826 C100.047381,61.3275765 99.9114354,61.9398586 99.6395396,62.5126471 C99.3676438,63.0854357 98.9549509,63.5940248 98.4014487,64.0384298 C97.8479465,64.4828347 97.1487963,64.8334155 96.3039772,65.0901828 C95.459158,65.3469501 94.4735505,65.4753318 93.3471249,65.4753318 C93.0169657,65.4753318 92.7207979,65.4703941 92.4586126,65.4605184 C92.1964274,65.4506427 91.9682325,65.4259539 91.7740212,65.3864513 C91.6963367,65.5049593 91.6137981,65.6481543 91.5264031,65.8160406 C91.439008,65.9839269 91.3953111,66.1468729 91.3953111,66.3048835 C91.3953111,66.6406562 91.6283612,66.9072951 92.0944683,67.1048084 C92.5605754,67.3023217 93.152911,67.480081 93.8714928,67.6380917 C94.5900746,67.7961023 95.362053,67.9738616 96.187451,68.1713749 C97.012849,68.3688882 97.7848274,68.6305894 98.5034092,68.9564864 C99.221991,69.2823833 99.824037,69.7070305 100.309565,70.2304408 C100.795093,70.753851 101.047564,71.4303239 101.066986,72.2598798 C101.086407,73.049933 100.892198,73.7510947 100.484355,74.3633859 C100.076511,74.9756772 99.5181617,75.4941418 98.8092904,75.9187954 C98.1004192,76.343449 97.2653231,76.669341 96.3039772,76.8964813 C95.3426312,77.1236216 94.318182,77.2371901 93.2305987,77.2371901 C91.9488041,77.2371901 90.8563819,77.1334972 89.9532994,76.9261082 C89.0502168,76.7187192 88.3170802,76.437267 87.7538674,76.0817431 C87.1906546,75.7262191 86.7779618,75.3213229 86.5157766,74.8670423 C86.2535913,74.4127617 86.1225006,73.9387369 86.1225006,73.4449537 C86.1225006,72.8919164 86.2293152,72.4178916 86.4429477,72.022865 C86.6565801,71.6278384 86.9576031,71.2821953 87.3460257,70.9859254 C87.7344483,70.6896554 88.1859828,70.4427675 88.7006428,70.2452542 C89.2153027,70.0477409 89.7833622,69.8699816 90.4048384,69.7119709 C90.1135215,69.6329656 89.8319193,69.5342105 89.5600235,69.4157025 C89.2881277,69.2971945 89.0453672,69.1539995 88.8317347,68.9861132 C88.6181023,68.8182269 88.4433148,68.6207166 88.3073668,68.3935763 C88.1714189,68.166436 88.103446,67.9047348 88.103446,67.6084648 C88.103446,67.3516975 88.1811294,67.0998718 88.3364984,66.8529802 C88.4918674,66.6060886 88.6957862,66.3789517 88.9482609,66.1715627 C89.2007356,65.9641738 89.4726274,65.7765389 89.7639443,65.6086526 C90.0552613,65.4407663 90.3465739,65.2975713 90.6378908,65.1790634 C89.4143596,64.9025447 88.4433177,64.3643291 87.7247359,63.5644002 C87.006154,62.7644713 86.6468685,61.7423553 86.6468685,60.4980215 C86.6468685,59.0166718 87.2489145,57.8612363 88.4530246,57.0316804 C89.6571347,56.2021246 91.2884851,55.7873529 93.3471249,55.7873529 Z M97.0177001,73.2079389 C97.0177001,72.674653 96.8574782,72.245068 96.5370296,71.919171 C96.2165809,71.5932741 95.8038881,71.3266351 95.2989387,71.1192462 C94.7939893,70.9118572 94.2259298,70.7340979 93.5947431,70.5859629 C92.9635563,70.437828 92.3372343,70.2650064 91.7157581,70.0674931 C91.2108088,70.4625197 90.8515232,70.8575404 90.6378908,71.252567 C90.4242584,71.6475936 90.3174438,72.1216184 90.3174438,72.6746556 C90.3174438,73.5832168 90.623322,74.2893163 91.2350876,74.7929752 C91.8468532,75.2966341 92.7062253,75.5484598 93.8132297,75.5484598 C94.900813,75.5484598 95.7067778,75.3163852 96.2311483,74.8522289 C96.7555188,74.3880726 97.0177001,73.8399815 97.0177001,73.2079389 Z M90.8418116,60.6461558 C90.8418116,61.6732249 91.011744,62.4533908 91.3516138,62.9866767 C91.6914835,63.5199626 92.3566473,63.7866016 93.3471249,63.7866016 C94.2987603,63.7866016 94.9542136,63.5150248 95.3135045,62.9718633 C95.6727954,62.4287017 95.8524382,61.6534736 95.8524382,60.6461558 C95.8524382,59.5795839 95.6679402,58.7846048 95.2989387,58.2611946 C94.9299372,57.7377843 94.2793391,57.4760831 93.3471249,57.4760831 C92.3760684,57.4760831 91.7157599,57.7328466 91.3661795,58.2463812 C91.0165992,58.7599157 90.8418116,59.5598326 90.8418116,60.6461558 Z" id="Ag" fill="#A0CBFF" transform="translate(84.039595, 63.549587) rotate(-15.000000) translate(-84.039595, -63.549587) "></path>
                <path d="M104.392005,27.4969185 L95.1111117,27.4969185 L93.6747829,31.8526092 L86.9719153,31.8526092 L95.9581774,5.8661157 L103.618598,5.8661157 L112.568031,31.8526092 L105.828334,31.8526092 L104.392005,27.4969185 Z M102.808361,22.6982763 L99.7515585,13.4701181 L96.6947562,22.6982763 L102.808361,22.6982763 Z M129.546173,13.9499823 L129.546173,11.2553601 L135.843923,11.2553601 L135.843923,31.7418713 C135.843923,34.7687223 135.003004,37.241844 133.32114,39.1613105 C131.639277,41.080777 129.042862,42.0404959 125.531819,42.0404959 C122.389066,42.0404959 119.897,41.4006833 118.055543,40.121039 C116.214087,38.8413946 115.170611,36.8850446 114.925083,34.2519303 L121.112345,34.2519303 C121.701611,35.8022687 123.174754,36.5774262 125.531819,36.5774262 C126.685798,36.5774262 127.643341,36.1898474 128.404476,35.4146783 C129.165611,34.6395091 129.546173,33.4152524 129.546173,31.7418713 L129.546173,28.862686 C128.023903,31.0282379 126.010607,32.1109976 123.506227,32.1109976 C121.812087,32.1109976 120.246872,31.6680505 118.810537,30.7821429 C117.374201,29.8962352 116.238653,28.6535224 115.403859,27.0539669 C114.569066,25.4544115 114.151675,23.6334065 114.151675,21.5908973 C114.151675,19.5483881 114.569066,17.727383 115.403859,16.1278276 C116.238653,14.5282722 117.374201,13.2794073 118.810537,12.3811954 C120.246872,11.4829835 121.812087,11.0338843 123.506227,11.0338843 C126.133371,11.0338843 128.146667,12.0059072 129.546173,13.9499823 Z M122.898549,17.0690998 C122.198796,17.4505322 121.634091,18.0226723 121.204418,18.7855372 C120.774745,19.5484021 120.559911,20.4835128 120.559911,21.5908973 C120.559911,22.6982818 120.774745,23.6272404 121.204418,24.3778011 C121.634091,25.1283617 122.192658,25.6943497 122.880135,26.0757822 C123.567612,26.4572146 124.291907,26.647928 125.053042,26.647928 C125.789625,26.647928 126.507782,26.4572146 127.207536,26.0757822 C127.907289,25.6943497 128.471994,25.1222096 128.901667,24.3593447 C129.33134,23.5964799 129.546173,22.6613692 129.546173,21.5539847 C129.546173,20.4466001 129.33134,19.5176415 128.901667,18.7670809 C128.471994,18.0165203 127.913427,17.4505322 127.22595,17.0690998 C126.538473,16.6876673 125.814178,16.496954 125.053042,16.496954 C124.31646,16.496954 123.598303,16.6876673 122.898549,17.0690998 Z" id="Ag" fill="#A0CBFF" transform="translate(111.407919, 23.953306) rotate(-15.000000) translate(-111.407919, -23.953306) "></path>
                <path d="M143.629494,92.7937151 L143.298465,81.9222542 L128.079207,77.8442662 L122.356797,87.0937131 L112.819776,84.538276 L138.925093,46.0472706 L149.747042,48.9470031 L153.166515,95.3491522 L143.629494,92.7937151 Z M143.199494,73.8396484 C142.843852,63.9737184 142.650039,58.3961927 142.618052,57.106904 C142.586064,55.8176153 142.586881,54.8056694 142.620503,54.0710359 C141.331297,56.3696564 137.897976,61.9874596 132.320437,70.9246139 L143.199494,73.8396484 Z M194.17844,71.6970921 L192.977773,76.1780414 L187.63225,76.1400355 C188.158668,77.8303438 188.181741,79.5716661 187.701472,81.3640548 C186.771919,84.8331942 184.853158,87.2161274 181.945131,88.5129259 C179.037105,89.8097244 175.460624,89.8893946 171.215581,88.7519389 L169.668352,88.2444053 L168.422155,87.7555631 C167.34155,88.2096582 166.687645,88.8607019 166.460421,89.7087137 C166.119584,90.9807315 167.548174,92.0451831 170.746233,92.9021004 L176.171485,94.3557922 C179.674121,95.2943207 182.139907,96.7709548 183.568917,98.7857389 C184.997927,100.800523 185.317367,103.282262 184.527246,106.231031 C183.515066,110.008538 181.173947,112.521014 177.503819,113.768533 C173.83369,115.016053 169.086179,114.859408 163.261143,113.298594 C158.806704,112.105031 155.614495,110.407932 153.684422,108.207246 C151.754349,106.006561 151.168889,103.48969 151.928024,100.65656 C152.449606,98.7099873 153.485601,97.2421131 155.036037,96.2528934 C156.586474,95.2636736 158.597743,94.8007548 161.069904,94.8641231 C160.278492,94.2389304 159.66715,93.3986237 159.235858,92.3431779 C158.804566,91.2877321 158.720608,90.2685631 158.983982,89.2856403 C159.314489,88.0521685 159.94164,87.1202583 160.865452,86.4898818 C161.789264,85.8595053 163.02328,85.327753 164.567536,84.8946091 C163.088601,83.7133737 162.075866,82.1819702 161.5293,80.3003525 C160.982734,78.4187349 161.00381,76.3793958 161.592527,74.1822742 C162.537572,70.6553158 164.400922,68.2317147 167.182632,66.9113982 C169.964342,65.5910816 173.45863,65.494552 177.665601,66.6218063 C178.560296,66.8615391 179.599593,67.2278078 180.783524,67.7206233 C181.967455,68.2134388 182.720405,68.5442939 183.042397,68.7131985 L194.17844,71.6970921 Z M159.652178,101.982602 C159.326834,103.196801 159.647043,104.305094 160.612815,105.307514 C161.578586,106.309934 163.098914,107.08912 165.173846,107.645096 C168.29576,108.481611 170.85805,108.703405 172.860793,108.310485 C174.863535,107.917565 176.066291,106.969473 176.469098,105.466179 C176.794441,104.25198 176.495596,103.27335 175.572553,102.53026 C174.64951,101.78717 173.093438,101.122344 170.90429,100.535764 L166.392765,99.3269044 C164.793736,98.8984458 163.354481,98.920763 162.074958,99.393857 C160.795435,99.8669509 159.98785,100.729857 159.652178,101.982602 Z M169.870743,76.5243553 C169.400802,78.278198 169.423979,79.7716708 169.940274,81.0048186 C170.456569,82.2379664 171.523733,83.0713075 173.141798,83.5048669 C174.7789,83.9435269 176.115003,83.7541394 177.150147,82.9366985 C178.185292,82.1192576 178.937823,80.8336351 179.407764,79.0797924 C180.450929,75.1866471 179.392534,72.816752 176.232547,71.9700361 C173.034488,71.1131188 170.913908,72.63121 169.870743,76.5243553 Z" id="Ag" fill="#A0CBFF"></path>
                <path d="M91.1961325,109.55 L189.729282,109.55 C191.662278,109.55 193.229282,111.117003 193.229282,113.05 L193.229282,175 C193.229282,178.865993 190.095275,182 186.229282,182 L80.7071823,182 C84.567073,182 87.6961326,178.87094 87.6961326,175.01105 L87.6961326,113.05 C87.6961326,111.117003 89.2631359,109.55 91.1961325,109.55 Z" id="Rectangle-8" stroke="#141419" stroke-width="2.79999995" fill="#FFFFFF" stroke-linejoin="round"></path>
                <rect id="Rectangle-11" opacity="0.5" x="0" y="4" width="277" height="181"></rect>
            </g>
        </g>
    </g>
</svg>