<?xml version="1.0" encoding="UTF-8"?>
<svg width="25px" height="19px" viewBox="0 0 25 19" version="1.1" xmlns="http://www.w3.org/2000/svg" xmlns:xlink="http://www.w3.org/1999/xlink">
    <!-- Generator: Sketch 45.2 (43514) - http://www.bohemiancoding.com/sketch -->
    <title>controls-icon</title>
    <desc>Created with Sketch.</desc>
    <defs></defs>
    <g id="Page-1" stroke="none" stroke-width="1" fill="none" fill-rule="evenodd">
        <g id="Desktop-HD" transform="translate(-1385.000000, -27.000000)" fill="#141419">
            <path d="M1402.85714,28.0535714 C1402.2619,28.0535714 1401.96429,28.3511893 1401.96429,28.9464286 C1401.96429,29.5416679 1402.2619,29.8392857 1402.85714,29.8392857 C1403.45238,29.8392857 1403.75,29.5416679 1403.75,28.9464286 C1403.75,28.3511893 1403.45238,28.0535714 1402.85714,28.0535714 Z M1402.85714,27.1607143 C1403.37798,27.1607143 1403.8058,27.328125 1404.14062,27.6629464 C1404.47545,27.9977679 1404.64286,28.4255929 1404.64286,28.9464286 C1404.64286,29.4672643 1404.47545,29.8950893 1404.14062,30.2299107 C1403.8058,30.5647321 1403.37798,30.7321429 1402.85714,30.7321429 C1402.33631,30.7321429 1401.90848,30.5647321 1401.57366,30.2299107 C1401.23884,29.8950893 1401.07143,29.4672643 1401.07143,28.9464286 C1401.07143,28.4255929 1401.23884,27.9977679 1401.57366,27.6629464 C1401.90848,27.328125 1402.33631,27.1607143 1402.85714,27.1607143 Z M1402.85714,43.2321429 C1402.2619,43.2321429 1401.96429,43.5297589 1401.96429,44.125 C1401.96429,44.7202411 1402.2619,45.0178571 1402.85714,45.0178571 C1403.45238,45.0178571 1403.75,44.7202411 1403.75,44.125 C1403.75,43.5297589 1403.45238,43.2321429 1402.85714,43.2321429 Z M1402.85714,42.3392857 C1403.37798,42.3392857 1403.8058,42.5066946 1404.14062,42.8415179 C1404.47545,43.1763411 1404.64286,43.6041639 1404.64286,44.125 C1404.64286,44.6458361 1404.47545,45.0736589 1404.14062,45.4084821 C1403.8058,45.7433053 1403.37798,45.9107143 1402.85714,45.9107143 C1402.33631,45.9107143 1401.90848,45.7433053 1401.57366,45.4084821 C1401.23884,45.0736589 1401.07143,44.6458361 1401.07143,44.125 C1401.07143,43.6041639 1401.23884,43.1763411 1401.57366,42.8415179 C1401.90848,42.5066946 1402.33631,42.3392857 1402.85714,42.3392857 Z M1392.14286,35.6428571 C1391.54762,35.6428571 1391.25,35.9404714 1391.25,36.5357143 C1391.25,37.1309571 1391.54762,37.4285714 1392.14286,37.4285714 C1392.7381,37.4285714 1393.03571,37.1309571 1393.03571,36.5357143 C1393.03571,35.9404714 1392.7381,35.6428571 1392.14286,35.6428571 Z M1392.14286,34.75 C1392.66369,34.75 1393.09152,34.9174107 1393.42634,35.2522321 C1393.76116,35.5870536 1393.92857,36.0148786 1393.92857,36.5357143 C1393.92857,37.05655 1393.76116,37.484375 1393.42634,37.8191964 C1393.09152,38.1540179 1392.66369,38.3214286 1392.14286,38.3214286 C1391.62202,38.3214286 1391.1942,38.1540179 1390.85938,37.8191964 C1390.52455,37.484375 1390.35714,37.05655 1390.35714,36.5357143 C1390.35714,36.0148786 1390.52455,35.5870536 1390.85938,35.2522321 C1391.1942,34.9174107 1391.62202,34.75 1392.14286,34.75 Z M1394.76562,36.0892857 L1410,36.0892857 L1410,36.9821429 L1394.76562,36.9821429 C1394.76562,36.9077393 1394.77492,36.8333321 1394.79353,36.7589286 C1394.81213,36.684525 1394.82143,36.6101179 1394.82143,36.5357143 C1394.82143,36.4613107 1394.81213,36.3869036 1394.79353,36.3125 C1394.77492,36.2380964 1394.76562,36.1636893 1394.76562,36.0892857 Z M1389.46429,36.5357143 C1389.46429,36.6101179 1389.47359,36.684525 1389.49219,36.7589286 C1389.51079,36.8333321 1389.52009,36.9077393 1389.52009,36.9821429 L1385,36.9821429 L1385,36.0892857 L1389.52009,36.0892857 C1389.52009,36.1636893 1389.51079,36.2380964 1389.49219,36.3125 C1389.47359,36.3869036 1389.46429,36.4613107 1389.46429,36.5357143 Z M1405.47991,43.6785714 L1410,43.6785714 L1410,44.5714286 L1405.47991,44.5714286 C1405.47991,44.4970236 1405.48921,44.4226193 1405.50781,44.3482143 C1405.52641,44.2738093 1405.53571,44.199405 1405.53571,44.125 C1405.53571,44.050595 1405.52641,43.9761907 1405.50781,43.9017857 C1405.48921,43.8273807 1405.47991,43.7529764 1405.47991,43.6785714 Z M1400.17857,44.125 C1400.17857,44.199405 1400.18787,44.2738093 1400.20647,44.3482143 C1400.22508,44.4226193 1400.23438,44.4970236 1400.23438,44.5714286 L1385,44.5714286 L1385,43.6785714 L1400.23438,43.6785714 C1400.23438,43.7529764 1400.22508,43.8273807 1400.20647,43.9017857 C1400.18787,43.9761907 1400.17857,44.050595 1400.17857,44.125 Z M1405.47991,28.5 L1410,28.5 L1410,29.3928571 L1405.47991,29.3928571 C1405.47991,29.3556536 1405.48921,29.29055 1405.50781,29.1975429 C1405.52641,29.1045393 1405.53571,29.0208321 1405.53571,28.9464286 C1405.53571,28.872025 1405.52641,28.7976179 1405.50781,28.7232143 C1405.48921,28.6488107 1405.47991,28.5744036 1405.47991,28.5 Z M1400.23438,28.5 C1400.23438,28.5744036 1400.22508,28.6488107 1400.20647,28.7232143 C1400.18787,28.7976179 1400.17857,28.872025 1400.17857,28.9464286 C1400.17857,29.0208321 1400.18787,29.1045393 1400.20647,29.1975429 C1400.22508,29.29055 1400.23438,29.3556536 1400.23438,29.3928571 L1385,29.3928571 L1385,28.5 L1400.23438,28.5 Z" id="controls-icon"></path>
        </g>
    </g>
</svg>